<?xml version="1.0" encoding="utf-8"?>
<!-- Generator: Adobe Illustrator 27.4.0, SVG Export Plug-In . SVG Version: 6.00 Build 0)  -->
<svg version="1.1" id="Layer_1" xmlns="http://www.w3.org/2000/svg" xmlns:xlink="http://www.w3.org/1999/xlink" x="0px" y="0px"
	 viewBox="0 0 171.5 107.5" style="enable-background:new 0 0 171.5 107.5;" xml:space="preserve">
<style type="text/css">
	.st0{enable-background:new    ;}
</style>
<g id="Group_2" transform="translate(-1649.976 -46.133)">
	<g id="Layer_1_00000042000205099889953400000003895232365847495587_" transform="translate(1649.976 46.133)">
		<path id="Path_1" d="M162.8,37.1c0,0,0.3,10,1.1,13.2l2.8,15.3c0,0,2.2,10.1-5.1,13.4c0,0-0.6,0.1-0.8-3.4L156.5,48
			c0,0-0.6-3.8,3-8.1C159.5,39.9,162.6,36.4,162.8,37.1z"/>
		<path id="Path_2" d="M151.7,17.4c0,0,3.2,18.3,3.2,19.7c-0.2,3.5-1.5,6.8-3.8,9.5c0,0-3.3,5.7-9.1,7.1c0,0-11.9,3.7-12.3,7.2
			c0,0,11.6,0.6,16.7-3.6c0,0,0.6-0.1,0.8,2.3c0,2.2-0.5,4.4-1.4,6.5c0,0-8.9,18.1-22.2,19.9c0,0-15.5,3.4-12.8-15.2
			c0,0-10.4,7.2-15.6,0.6c0,0-4.9-4.9-0.3-16.5c0,0-0.7-0.5-1.9,3.7c0,0-2.4,11.1-16.2,12.9c0,0-23.5,0.8-24.5-1
			c0,0-2.2-0.8,7.3-2.6c0,0,31.8-6.4,33.9-23.5c0,0-0.5-5.9,1.6-6.2c0,0,2.3-0.1,2.2,6.4l-0.2,14.1c0,0,5.3,12.1,19.1-2.6
			c0,0,1.6-0.5,1.2,2.8c0,0-0.4,4.1-1.6,6.2c0,0-2.8,9,7.2,11c6.2-0.3,12.1-3,16.4-7.6c0,0-10.4,1-16.5,3.4c0,0-2.2,0.8-1.1-3.6
			c0,0,3.6-13.8,9.8-18.8c0,0,1.6-2.2,12.6-4.9c0,0,4.8-1,3.2-6.5c0,0-2.8-11.3-1.2-13.9C146.4,24,149.5,17.4,151.7,17.4z"/>
		<path id="Path_3" d="M126,30.9c0,0,2.4-7.2,7-11.6c1.5,2.9,3.9,5.2,6.8,6.6l-6.7,11.9C133.1,37.8,126.5,33.1,126,30.9z"/>
		<path id="Path_4" d="M108.4,43.6c0,0,4-8.9,7-11.1c0,0,4.6,6,6.8,6.4c0,0-3.1,8-6.7,11.5C115.5,50.3,108.8,46.6,108.4,43.6z"/>
		<path id="Path_5" d="M1.2,66.2V56.1c0,0,33.4,0.2,45.6-1.2c0,0,33.4-2.9,36.7-11.4c0.6-1.2,0.5-2.7-0.4-3.7c0,0-4.1,5.3-9.3,4.5
			c0,0-7.1-0.8-4.7-12.9c0,0,1.1-9.7,4.4-11.1c0,0,8.9-1,14,10.7c0,0,5.2,10.9-5.9,21.5c0,0-5,6.8-34.8,11.8
			C46.9,64.3,11.1,67.8,1.2,66.2z"/>
		<path id="Path_6" d="M65.1,16.2c0,0,4.2-9.9,5.9-11.3L90.2,0c-0.8,4.3-2.8,8.3-5.9,11.4L65.1,16.2z"/>
		<path id="Path_7" d="M158.8,76.7V79h-18c0.7-0.7,1.4-1.4,1.9-2.3L158.8,76.7z"/>
		<g id="Group_1" transform="translate(0 76.603)">
			<path id="Path_8" d="M0,0v2.2h107.6c-0.3-0.7-0.4-1.5-0.4-2.2H0z"/>
		</g>
		<path id="Path_9" d="M97.2,54.6c0,0-0.7,5.2,3.6,7.7C100.9,62.3,94.9,59.5,97.2,54.6z"/>
	</g>
	<g id="Component_5_2" transform="translate(1642 124.609)">
		<g class="st0">
			<path d="M22.9,18.7h-2.5c-0.2,0-0.3,0-0.5-0.1c-0.1-0.1-0.2-0.1-0.3-0.2s-0.2-0.2-0.2-0.4s-0.1-0.3-0.1-0.4l0-4.3
				c-0.2,0-0.5,0-0.7,0c-0.2,0-0.5,0-0.7,0c-0.2,0-0.4,0-0.5,0.1c-0.2,0.1-0.3,0.2-0.5,0.3c-0.1,0.1-0.2,0.3-0.3,0.5
				s-0.1,0.4-0.1,0.6l0,1.8c0.1,0,0.2,0,0.4,0.1s0.4,0,0.5,0.1s0.4,0,0.5,0s0.3,0,0.4,0v2.2c-0.2,0-0.5,0-0.8,0s-0.6-0.1-0.9-0.1
				s-0.6-0.1-0.9-0.1c-0.3,0-0.5-0.1-0.7-0.2l0,0c-0.2-0.1-0.5-0.2-0.6-0.4s-0.2-0.4-0.2-0.7v-2.7c0-0.5,0.1-1,0.3-1.4
				s0.4-0.8,0.8-1.2s0.7-0.6,1.1-0.8s0.9-0.3,1.4-0.3h2.3c0.2,0,0.3,0,0.5,0.1c0.2,0.1,0.3,0.2,0.4,0.3c0.1,0.1,0.2,0.3,0.3,0.4
				s0.1,0.3,0.1,0.5l0,4.2h1.5V18.7z M15.7,9c0-0.2,0-0.3,0.1-0.5s0.1-0.3,0.2-0.4s0.2-0.2,0.4-0.2s0.3-0.1,0.4-0.1
				c0.2,0,0.3,0,0.5,0.1s0.3,0.1,0.4,0.2s0.2,0.2,0.3,0.4S18,8.8,18,9c0,0.2,0,0.3-0.1,0.4s-0.1,0.3-0.3,0.4s-0.2,0.2-0.4,0.3
				c-0.1,0.1-0.3,0.1-0.5,0.1c-0.2,0-0.3,0-0.4-0.1C16.2,10,16.1,9.9,16,9.8s-0.2-0.2-0.2-0.4S15.7,9.2,15.7,9z M18.3,9
				c0-0.2,0-0.3,0.1-0.5s0.1-0.3,0.2-0.4S18.9,8,19,7.9s0.3-0.1,0.4-0.1c0.2,0,0.3,0,0.5,0.1s0.3,0.1,0.4,0.2s0.2,0.2,0.3,0.4
				s0.1,0.3,0.1,0.5c0,0.2,0,0.3-0.1,0.4s-0.1,0.3-0.3,0.4s-0.2,0.2-0.4,0.3c-0.1,0.1-0.3,0.1-0.5,0.1c-0.2,0-0.3,0-0.4-0.1
				c-0.1-0.1-0.3-0.1-0.4-0.3s-0.2-0.2-0.2-0.4S18.3,9.2,18.3,9z"/>
			<path d="M22.7,18.7v-2.2h1.5c0-0.2-0.1-0.3-0.1-0.5s0-0.4,0-0.5c0-0.5,0.1-1,0.3-1.5s0.4-0.9,0.7-1.3s0.7-0.7,1.1-1
				c0.4-0.3,0.8-0.4,1.3-0.5c0.2,0,0.4-0.1,0.6-0.1c0.2,0,0.4,0,0.7,0c0.4,0,0.8,0,1.2,0.1s0.8,0.2,1.2,0.3c0.4,0.2,0.8,0.4,1.2,0.6
				c0.4,0.3,0.7,0.6,1,1s0.6,0.9,0.8,1.4c0.2,0.6,0.3,1.2,0.4,2h1.3v2.2H22.7z M27.8,13.3c-0.2,0-0.3,0-0.5,0.1s-0.3,0.2-0.5,0.4
				s-0.3,0.4-0.4,0.6s-0.2,0.4-0.2,0.7c0,0.1,0,0.3,0,0.4c0,0.1,0,0.3,0,0.4s0.1,0.2,0.1,0.3s0.1,0.2,0.2,0.2
				c0.1,0.1,0.2,0.1,0.4,0.1c0.2,0,0.4-0.1,0.5-0.2s0.3-0.3,0.5-0.5c0.1-0.2,0.3-0.4,0.3-0.7s0.1-0.5,0.1-0.8c0-0.3,0-0.5-0.1-0.7
				s-0.2-0.3-0.4-0.3L27.8,13.3z M32.3,16.6c0-0.4-0.1-0.8-0.2-1.1c-0.1-0.3-0.2-0.6-0.4-0.8s-0.3-0.4-0.5-0.6
				c-0.2-0.1-0.4-0.3-0.6-0.4c0,0.2,0.1,0.4,0.1,0.6c0,0.4,0,0.8-0.1,1.1c-0.1,0.4-0.2,0.7-0.4,1.1H32.3z"/>
			<path d="M36.6,11.1c0.2,0,0.3,0,0.6,0s0.4,0,0.6,0c0.4,0,0.8,0.1,1.3,0.1c0.4,0.1,0.9,0.1,1.3,0.3c0.4,0.1,0.9,0.3,1.3,0.5
				s0.8,0.5,1.1,0.9s0.6,0.9,0.8,1.5s0.3,1.3,0.4,2.1h0.8v2.2h-9v-2.2h6.1c0-0.5-0.1-1-0.3-1.4s-0.3-0.7-0.6-0.9s-0.5-0.4-0.8-0.6
				s-0.6-0.2-0.9-0.3c-0.3-0.1-0.6-0.1-0.9-0.1s-0.6,0-0.9,0c-0.1,0-0.3,0-0.4,0s-0.3,0-0.5,0L36.6,11.1z M38.4,21.1
				c0-0.2,0-0.3,0.1-0.5s0.1-0.3,0.2-0.4s0.2-0.2,0.4-0.2s0.3-0.1,0.4-0.1c0.2,0,0.3,0,0.5,0.1s0.3,0.1,0.4,0.2s0.2,0.2,0.3,0.4
				s0.1,0.3,0.1,0.5c0,0.2,0,0.3-0.1,0.4s-0.1,0.3-0.3,0.4s-0.2,0.2-0.4,0.3c-0.1,0.1-0.3,0.1-0.5,0.1c-0.2,0-0.3,0-0.4-0.1
				c-0.1-0.1-0.3-0.1-0.4-0.3s-0.2-0.2-0.2-0.4S38.4,21.2,38.4,21.1z"/>
			<path d="M48.5,18.7h-2.2V8.1h2.2V18.7z"/>
			<path d="M57.2,18.7c-0.1,0.6-0.3,1.1-0.6,1.6c-0.3,0.5-0.6,1-1,1.3s-0.9,0.7-1.5,0.9c-0.6,0.2-1.3,0.3-2.1,0.3v-2.2
				c0.9,0,1.5-0.2,2-0.5s0.8-0.8,0.9-1.5c-0.3,0-0.6,0.1-1,0.1c-0.4,0-0.7,0-1.1,0c-0.4,0-0.7-0.1-1.1-0.3s-0.7-0.4-0.9-0.7
				s-0.5-0.7-0.6-1.2s-0.2-1.1-0.2-1.9c0-0.5,0.1-1,0.3-1.4s0.4-0.8,0.8-1.2s0.7-0.6,1.1-0.8s0.9-0.3,1.4-0.3h2.3
				c0.2,0,0.4,0,0.5,0.1s0.3,0.2,0.4,0.3s0.2,0.3,0.3,0.4s0.1,0.3,0.1,0.5c0,0.2,0,0.4,0,0.7s0,0.5,0,0.7c0,0.3,0,0.6,0,0.9
				s0,0.6,0,0.9c0,0.2,0,0.3,0,0.5c0,0.1,0,0.3,0,0.5h1.4v2.2H57.2z M55.3,13.3c-0.2,0-0.5,0-0.7,0c-0.2,0-0.5,0-0.7,0
				c-0.2,0-0.4,0-0.5,0.1c-0.2,0.1-0.3,0.2-0.5,0.3c-0.1,0.1-0.2,0.3-0.3,0.5s-0.1,0.4-0.1,0.6c0,0.4,0,0.8,0,1
				c0,0.3,0.1,0.5,0.2,0.7c0.1,0.2,0.3,0.3,0.5,0.3s0.4,0.1,0.7,0.1c0.3,0,0.6,0,0.8-0.1s0.3-0.1,0.4-0.2c0.1-0.1,0.2-0.2,0.2-0.4
				s0.1-0.4,0.1-0.7L55.3,13.3z"/>
			<path d="M58.7,16.6h1.4v-1.9c0-0.4,0.1-0.8,0.3-1.3s0.4-0.8,0.8-1.2c0.3-0.3,0.7-0.6,1.1-0.8s0.9-0.3,1.4-0.3c0.4,0,0.9,0,1.3,0
				s0.9,0,1.3,0c0.1,0,0.3,0,0.4,0.1s0.2,0.1,0.3,0.2c0.1,0.1,0.2,0.2,0.2,0.3c0.1,0.1,0.1,0.3,0.1,0.4v5.4c0,0.2,0,0.3-0.1,0.5
				s-0.1,0.3-0.2,0.4s-0.2,0.2-0.3,0.2c-0.1,0.1-0.3,0.1-0.4,0.1h-7.6V16.6z M62.3,16.6h2.9v-3.3c-0.3,0-0.6,0-0.8,0s-0.4,0-0.5,0
				c-0.1,0-0.1,0-0.2,0c0,0-0.1,0-0.1,0s0,0,0,0s0,0,0,0c-0.2,0-0.3,0-0.5,0.1c-0.2,0.1-0.3,0.2-0.4,0.3s-0.2,0.3-0.3,0.4
				c-0.1,0.2-0.1,0.3-0.1,0.5V16.6z"/>
			<path d="M71.9,20.6v-0.8h8.7v0.8H71.9z"/>
			<path d="M87.4,14.6c0-0.4,0.1-0.8,0.3-1.3s0.4-0.8,0.8-1.2c0.3-0.3,0.7-0.6,1.1-0.8s0.9-0.3,1.4-0.3c0.4,0,0.9,0,1.3,0
				s0.9,0,1.3,0c0.1,0,0.3,0,0.4,0.1s0.2,0.1,0.3,0.2c0.1,0.1,0.2,0.2,0.2,0.3c0.1,0.1,0.1,0.3,0.1,0.4v5.4c0,0.2,0,0.3-0.1,0.4
				c-0.1,0.1-0.1,0.2-0.2,0.3s-0.2,0.2-0.3,0.2s-0.3,0.1-0.4,0.1h-5.2c-0.2,0-0.4,0-0.6,0c-0.2,0-0.3,0.1-0.4,0.1s-0.2,0.2-0.3,0.3
				s-0.1,0.3-0.1,0.6v3.1h-2.2v-3.1c0-0.5,0.1-0.9,0.2-1.3s0.3-0.7,0.5-0.9c0.2-0.3,0.5-0.5,0.8-0.6c0.3-0.2,0.7-0.3,1-0.3V14.6z
				 M89.6,16.6h2.9v-3.3c-0.4,0-0.7,0-0.9,0s-0.4,0-0.4,0c-0.1,0-0.1,0-0.2,0h0c-0.2,0-0.3,0-0.5,0.1s-0.3,0.2-0.4,0.3
				s-0.2,0.3-0.3,0.5s-0.1,0.4-0.1,0.5V16.6z"/>
			<path d="M98.5,18.7h-2.2V8.1h2.2V18.7z"/>
			<path d="M104.7,12.4c0,0.5,0,1,0,1.6c0,0.5,0,1.1,0,1.6c0,0.2,0,0.3,0,0.5s0,0.3,0,0.5h1.3v2.2h-1.5c-0.1,0.6-0.3,1.1-0.6,1.6
				s-0.6,1-1,1.3s-0.9,0.7-1.5,0.9c-0.6,0.2-1.3,0.3-2.1,0.3v-2.2c0.5,0,0.9-0.1,1.3-0.2c0.3-0.1,0.6-0.3,0.9-0.6s0.4-0.5,0.6-0.9
				s0.2-0.7,0.3-1.1s0.1-0.8,0.1-1.2s0-0.8,0-1.2c0-0.6,0-1.1,0-1.7s0-1.1,0-1.6h2.2L104.7,12.4z M102.4,9.8c0-0.2,0-0.3,0.1-0.5
				s0.1-0.3,0.2-0.4s0.2-0.2,0.4-0.2s0.3-0.1,0.4-0.1c0.2,0,0.3,0,0.5,0.1s0.3,0.1,0.4,0.2s0.2,0.2,0.3,0.4s0.1,0.3,0.1,0.5
				c0,0.2,0,0.3-0.1,0.4s-0.1,0.3-0.3,0.4s-0.2,0.2-0.4,0.2c-0.1,0.1-0.3,0.1-0.5,0.1c-0.2,0-0.3,0-0.4-0.1
				c-0.1-0.1-0.3-0.1-0.4-0.2s-0.2-0.2-0.2-0.4S102.4,10,102.4,9.8z"/>
			<path d="M106,18.7v-2.2h1.7v-5.2h2.2v5.2h1.6v2.2H106z M106.2,9c0-0.2,0-0.3,0.1-0.5s0.1-0.3,0.2-0.4s0.2-0.2,0.4-0.2
				s0.3-0.1,0.4-0.1c0.2,0,0.3,0,0.5,0.1s0.3,0.1,0.4,0.2s0.2,0.2,0.3,0.4s0.1,0.3,0.1,0.5c0,0.2,0,0.3-0.1,0.4s-0.1,0.3-0.3,0.4
				s-0.2,0.2-0.4,0.3c-0.1,0.1-0.3,0.1-0.5,0.1c-0.2,0-0.3,0-0.4-0.1c-0.1-0.1-0.3-0.1-0.4-0.3s-0.2-0.2-0.2-0.4S106.2,9.2,106.2,9z
				 M108.8,9c0-0.2,0-0.3,0.1-0.5s0.1-0.3,0.2-0.4s0.2-0.2,0.4-0.2s0.3-0.1,0.4-0.1c0.2,0,0.3,0,0.5,0.1s0.3,0.1,0.4,0.2
				s0.2,0.2,0.3,0.4s0.1,0.3,0.1,0.5c0,0.2,0,0.3-0.1,0.4s-0.1,0.3-0.3,0.4s-0.2,0.2-0.4,0.3c-0.1,0.1-0.3,0.1-0.5,0.1
				c-0.2,0-0.3,0-0.4-0.1c-0.1-0.1-0.3-0.1-0.4-0.3s-0.2-0.2-0.2-0.4S108.8,9.2,108.8,9z"/>
			<path d="M111.3,16.6h1.6V8.1h2.2v9.5c0,0.2,0,0.3-0.1,0.5s-0.1,0.3-0.2,0.4c-0.1,0.1-0.2,0.2-0.4,0.3s-0.3,0.1-0.4,0.1h-2.7V16.6
				z"/>
			<path d="M119.2,18.7H117V8.1h2.2V18.7z"/>
			<path d="M124.1,20.6v-0.8h8.7v0.8H124.1z"/>
			<path d="M140.8,18.7c-0.7,0-1.3-0.1-1.7-0.3c-0.5-0.2-0.8-0.5-1.1-0.8s-0.5-0.7-0.6-1.1c-0.1-0.4-0.2-0.9-0.2-1.3
				c0-0.2,0-0.5,0.1-0.7c0-0.2,0.1-0.5,0.2-0.7s0.1-0.5,0.2-0.7c0.1-0.2,0.2-0.4,0.3-0.6l1.9,1c-0.1,0.2-0.2,0.5-0.3,0.8
				s-0.1,0.6-0.1,1c0,0.2,0,0.3,0.1,0.5s0.1,0.3,0.2,0.4s0.2,0.2,0.4,0.3c0.2,0.1,0.4,0.1,0.7,0.1c0,0,0,0,0.1,0c0,0,0,0,0.1,0h0.9
				c-0.1-0.3-0.2-0.5-0.2-0.8c0-0.3-0.1-0.6-0.1-0.8c0-0.5,0.1-1,0.2-1.4s0.4-0.9,0.7-1.2s0.7-0.6,1.1-0.9s1-0.3,1.5-0.3h2.2
				c0.2,0,0.4,0,0.5,0.1s0.3,0.2,0.4,0.3s0.2,0.3,0.3,0.4c0.1,0.2,0.1,0.3,0.1,0.5v4.1h1.3v2.2H140.8z M143.7,15.7
				c0.1,0.3,0.2,0.5,0.4,0.6s0.5,0.3,0.8,0.3h1.4v-3.3h-1.4c-0.2,0-0.4,0-0.6,0.1c-0.2,0.1-0.3,0.2-0.4,0.4s-0.2,0.3-0.2,0.5
				s-0.1,0.4-0.1,0.6C143.5,15.2,143.6,15.4,143.7,15.7z M143.9,9c0-0.2,0-0.3,0.1-0.5s0.1-0.3,0.2-0.4s0.2-0.2,0.4-0.2
				s0.3-0.1,0.4-0.1c0.2,0,0.3,0,0.5,0.1s0.3,0.1,0.4,0.2s0.2,0.2,0.3,0.4s0.1,0.3,0.1,0.5c0,0.2,0,0.3-0.1,0.4s-0.1,0.3-0.3,0.4
				s-0.2,0.2-0.4,0.2s-0.3,0.1-0.5,0.1c-0.2,0-0.3,0-0.4-0.1s-0.3-0.1-0.4-0.2S144,9.6,144,9.4S143.9,9.2,143.9,9z"/>
			<path d="M149.7,18.7v-2.2h1.7c-0.1-0.3-0.2-0.5-0.2-0.8c0-0.3-0.1-0.6-0.1-0.8c0-0.5,0.1-1,0.2-1.4s0.4-0.9,0.7-1.2
				s0.7-0.6,1.1-0.9s1-0.3,1.5-0.3h2.2c0.2,0,0.4,0,0.5,0.1s0.3,0.2,0.4,0.3s0.2,0.3,0.3,0.4c0.1,0.2,0.1,0.3,0.1,0.5l0,5.2
				c0,0.2,0,0.3-0.1,0.4c-0.1,0.1-0.1,0.2-0.2,0.3s-0.2,0.2-0.3,0.2s-0.3,0.1-0.4,0.1H149.7z M152.2,9c0-0.2,0-0.3,0.1-0.5
				s0.1-0.3,0.2-0.4s0.2-0.2,0.4-0.2s0.3-0.1,0.4-0.1c0.2,0,0.3,0,0.5,0.1s0.3,0.1,0.4,0.2s0.2,0.2,0.3,0.4s0.1,0.3,0.1,0.5
				c0,0.2,0,0.3-0.1,0.4s-0.1,0.3-0.3,0.4s-0.2,0.2-0.4,0.3c-0.1,0.1-0.3,0.1-0.5,0.1c-0.2,0-0.3,0-0.4-0.1
				c-0.1-0.1-0.3-0.1-0.4-0.3s-0.2-0.2-0.2-0.4S152.2,9.2,152.2,9z M153.4,15.7c0.1,0.3,0.2,0.5,0.4,0.6s0.5,0.3,0.8,0.3h1.4v-3.3
				h-1.4c-0.2,0-0.4,0-0.6,0.1c-0.2,0.1-0.3,0.2-0.4,0.4s-0.2,0.3-0.3,0.5s-0.1,0.4-0.1,0.6C153.2,15.2,153.3,15.4,153.4,15.7z
				 M154.8,9c0-0.2,0-0.3,0.1-0.5s0.1-0.3,0.2-0.4s0.2-0.2,0.4-0.2s0.3-0.1,0.4-0.1c0.2,0,0.3,0,0.5,0.1s0.3,0.1,0.4,0.2
				s0.2,0.2,0.3,0.4s0.1,0.3,0.1,0.5c0,0.2,0,0.3-0.1,0.4s-0.1,0.3-0.3,0.4s-0.2,0.2-0.4,0.3c-0.1,0.1-0.3,0.1-0.5,0.1
				c-0.2,0-0.3,0-0.4-0.1c-0.1-0.1-0.3-0.1-0.4-0.3s-0.2-0.2-0.2-0.4S154.8,9.2,154.8,9z"/>
			<path d="M166.4,18.7c-0.1,0.6-0.3,1.1-0.6,1.6c-0.3,0.5-0.6,1-1,1.3s-0.9,0.7-1.5,0.9c-0.6,0.2-1.3,0.3-2.1,0.3v-2.2
				c0.9,0,1.5-0.2,2-0.5s0.8-0.8,0.9-1.5c-0.3,0-0.6,0.1-1,0.1c-0.4,0-0.7,0-1.1,0c-0.4,0-0.7-0.1-1.1-0.3s-0.7-0.4-0.9-0.7
				s-0.5-0.7-0.6-1.2s-0.2-1.1-0.2-1.9c0-0.5,0.1-1,0.3-1.4s0.4-0.8,0.8-1.2s0.7-0.6,1.1-0.8s0.9-0.3,1.4-0.3h2.3
				c0.2,0,0.4,0,0.5,0.1s0.3,0.2,0.4,0.3s0.2,0.3,0.3,0.4s0.1,0.3,0.1,0.5c0,0.2,0,0.4,0,0.7s0,0.5,0,0.7c0,0.3,0,0.6,0,0.9
				s0,0.6,0,0.9c0,0.2,0,0.3,0,0.5c0,0.1,0,0.3,0,0.5h1.4v2.2H166.4z M164.4,13.3c-0.2,0-0.5,0-0.7,0c-0.2,0-0.5,0-0.7,0
				c-0.2,0-0.4,0-0.5,0.1c-0.2,0.1-0.3,0.2-0.5,0.3c-0.1,0.1-0.2,0.3-0.3,0.5s-0.1,0.4-0.1,0.6c0,0.4,0,0.8,0,1
				c0,0.3,0.1,0.5,0.2,0.7c0.1,0.2,0.3,0.3,0.5,0.3s0.4,0.1,0.7,0.1c0.3,0,0.6,0,0.8-0.1s0.3-0.1,0.4-0.2c0.1-0.1,0.2-0.2,0.2-0.4
				s0.1-0.4,0.1-0.7L164.4,13.3z"/>
			<path d="M167.9,16.6h1.4v-1.9c0-0.4,0.1-0.8,0.3-1.3s0.4-0.8,0.8-1.2c0.3-0.3,0.7-0.6,1.1-0.8s0.9-0.3,1.4-0.3c0.4,0,0.9,0,1.3,0
				s0.9,0,1.3,0c0.1,0,0.3,0,0.4,0.1s0.2,0.1,0.3,0.2c0.1,0.1,0.2,0.2,0.2,0.3c0.1,0.1,0.1,0.3,0.1,0.4v5.4c0,0.2,0,0.3-0.1,0.5
				s-0.1,0.3-0.2,0.4s-0.2,0.2-0.3,0.2c-0.1,0.1-0.3,0.1-0.4,0.1h-7.6V16.6z M171.5,16.6h2.9v-3.3c-0.3,0-0.6,0-0.8,0s-0.4,0-0.5,0
				c-0.1,0-0.1,0-0.2,0c0,0-0.1,0-0.1,0s0,0,0,0s0,0,0,0c-0.2,0-0.3,0-0.5,0.1c-0.2,0.1-0.3,0.2-0.4,0.3s-0.2,0.3-0.3,0.4
				c-0.1,0.2-0.1,0.3-0.1,0.5V16.6z"/>
		</g>
	</g>
</g>
</svg>
