<?xml version="1.0" encoding="utf-8"?>
<!-- Generator: Adobe Illustrator 27.4.0, SVG Export Plug-In . SVG Version: 6.00 Build 0)  -->
<svg version="1.1" id="Layer_1" xmlns="http://www.w3.org/2000/svg" xmlns:xlink="http://www.w3.org/1999/xlink" x="0px" y="0px"
	 viewBox="0 0 187 107.5" style="enable-background:new 0 0 187 107.5;" xml:space="preserve">
<style type="text/css">
	.st0{enable-background:new    ;}
</style>
<g id="Group_2" transform="translate(-1649.976 -46.133)">
	<g id="Layer_1_00000118373744199459117700000001311777769874620827_" transform="translate(1649.976 46.133)">
		<path id="Path_1" d="M162.8,37.1c0,0,0.3,10,1.1,13.2l2.8,15.3c0,0,2.2,10.1-5.1,13.4c0,0-0.6,0.1-0.8-3.4L156.5,48
			c0,0-0.6-3.8,3-8.1C159.5,39.9,162.6,36.4,162.8,37.1z"/>
		<path id="Path_2" d="M151.7,17.4c0,0,3.2,18.3,3.2,19.7c-0.2,3.5-1.5,6.8-3.8,9.5c0,0-3.3,5.7-9.1,7.1c0,0-11.9,3.7-12.3,7.2
			c0,0,11.6,0.6,16.7-3.6c0,0,0.6-0.1,0.8,2.3c0,2.2-0.5,4.4-1.4,6.5c0,0-8.9,18.1-22.2,19.9c0,0-15.5,3.4-12.8-15.2
			c0,0-10.4,7.2-15.6,0.6c0,0-4.9-4.9-0.3-16.5c0,0-0.7-0.5-1.9,3.7c0,0-2.4,11.1-16.2,12.9c0,0-23.5,0.8-24.5-1
			c0,0-2.2-0.8,7.3-2.6c0,0,31.8-6.4,33.9-23.5c0,0-0.5-5.9,1.6-6.2c0,0,2.3-0.1,2.2,6.4l-0.2,14.1c0,0,5.3,12.1,19.1-2.6
			c0,0,1.6-0.5,1.2,2.8c0,0-0.4,4.1-1.6,6.2c0,0-2.8,9,7.2,11c6.2-0.3,12.1-3,16.4-7.6c0,0-10.4,1-16.5,3.4c0,0-2.2,0.8-1.1-3.6
			c0,0,3.6-13.8,9.8-18.8c0,0,1.6-2.2,12.6-4.9c0,0,4.8-1,3.2-6.5c0,0-2.8-11.3-1.2-13.9C146.4,24,149.5,17.4,151.7,17.4z"/>
		<path id="Path_3" d="M126,30.9c0,0,2.4-7.2,7-11.6c1.5,2.9,3.9,5.2,6.8,6.6l-6.7,11.9C133.1,37.8,126.5,33.1,126,30.9z"/>
		<path id="Path_4" d="M108.4,43.6c0,0,4-8.9,7-11.1c0,0,4.6,6,6.8,6.4c0,0-3.1,8-6.7,11.5C115.5,50.3,108.8,46.6,108.4,43.6z"/>
		<path id="Path_5" d="M1.2,66.2V56.1c0,0,33.4,0.2,45.6-1.2c0,0,33.4-2.9,36.7-11.4c0.6-1.2,0.5-2.7-0.4-3.7c0,0-4.1,5.3-9.3,4.5
			c0,0-7.1-0.8-4.7-12.9c0,0,1.1-9.7,4.4-11.1c0,0,8.9-1,14,10.7c0,0,5.2,10.9-5.9,21.5c0,0-5,6.8-34.8,11.8
			C46.9,64.3,11.1,67.8,1.2,66.2z"/>
		<path id="Path_6" d="M65.1,16.2c0,0,4.2-9.9,5.9-11.3L90.2,0c-0.8,4.3-2.8,8.3-5.9,11.4L65.1,16.2z"/>
		<path id="Path_7" d="M158.8,76.7V79h-18c0.7-0.7,1.4-1.4,1.9-2.3L158.8,76.7z"/>
		<g id="Group_1" transform="translate(0 76.603)">
			<path id="Path_8" d="M0,0v2.2h107.6c-0.3-0.7-0.4-1.5-0.4-2.2H0z"/>
		</g>
		<path id="Path_9" d="M97.2,54.6c0,0-0.7,5.2,3.6,7.7C100.9,62.3,94.9,59.5,97.2,54.6z"/>
	</g>
	<g id="Component_5_2" transform="translate(1642 124.609)">
		<g class="st0">
			<path d="M16.8,14.6c0-0.4,0.1-0.8,0.3-1.3s0.4-0.8,0.8-1.2c0.3-0.3,0.7-0.6,1.1-0.8s0.9-0.3,1.4-0.3c0.4,0,0.9,0,1.3,0
				s0.9,0,1.3,0c0.1,0,0.3,0,0.4,0.1s0.2,0.1,0.3,0.2c0.1,0.1,0.2,0.2,0.2,0.3c0.1,0.1,0.1,0.3,0.1,0.4v5.4c0,0.2,0,0.3-0.1,0.4
				c-0.1,0.1-0.1,0.2-0.2,0.3s-0.2,0.2-0.3,0.2s-0.3,0.1-0.4,0.1h-5.2c-0.2,0-0.4,0-0.6,0c-0.2,0-0.3,0.1-0.4,0.1s-0.2,0.2-0.3,0.3
				s-0.1,0.3-0.1,0.6v3.1h-2.2v-3.1c0-0.5,0.1-0.9,0.2-1.3s0.3-0.7,0.5-0.9c0.2-0.3,0.5-0.5,0.8-0.6c0.3-0.2,0.7-0.3,1-0.3V14.6z
				 M19,16.6h2.9v-3.3c-0.4,0-0.7,0-0.9,0s-0.4,0-0.4,0c-0.1,0-0.1,0-0.2,0h0c-0.2,0-0.3,0-0.5,0.1s-0.3,0.2-0.4,0.3
				s-0.2,0.3-0.3,0.5S19,14.5,19,14.7V16.6z"/>
			<path d="M31,11.1c0.2,0,0.4,0,0.5,0.1s0.3,0.2,0.4,0.3s0.2,0.3,0.3,0.4s0.1,0.3,0.1,0.5c0,0.1,0,0.3,0,0.6c0,0.2,0,0.5,0,0.8
				c0,0.3,0,0.6,0,0.9s0,0.6,0,0.9s0,0.5,0,0.7s0,0.3,0,0.4c0,1.2-0.2,2.3-0.4,3.1c-0.3,0.8-0.6,1.5-1.1,1.9s-1,0.8-1.6,1
				S27.8,23,27,23v-2.2c0.9,0,1.5-0.2,2-0.5s0.8-0.8,0.9-1.5c-0.3,0-0.6,0.1-1,0.1c-0.4,0-0.7,0-1.1,0c-0.4,0-0.7-0.1-1.1-0.3
				s-0.7-0.4-0.9-0.7s-0.5-0.7-0.6-1.2s-0.2-1.1-0.2-1.9c0-0.5,0.1-1,0.3-1.4s0.4-0.8,0.8-1.2s0.7-0.6,1.1-0.8s0.9-0.3,1.4-0.3H31z
				 M30.2,13.3c-0.2,0-0.5,0-0.7,0c-0.2,0-0.5,0-0.7,0c-0.2,0-0.4,0-0.5,0.1c-0.2,0.1-0.3,0.2-0.5,0.3c-0.1,0.1-0.2,0.3-0.3,0.5
				s-0.1,0.4-0.1,0.6c0,0.4,0,0.8,0,1c0,0.3,0.1,0.5,0.2,0.7c0.1,0.2,0.3,0.3,0.5,0.3s0.4,0.1,0.7,0.1c0.3,0,0.6,0,0.8-0.1
				s0.3-0.1,0.4-0.2c0.1-0.1,0.2-0.2,0.2-0.4s0.1-0.4,0.1-0.7L30.2,13.3z"/>
			<path d="M38.2,16.6C38.1,16.3,38,16,38,15.8c0-0.3-0.1-0.6-0.1-0.8c0-0.5,0.1-1,0.2-1.4s0.4-0.9,0.7-1.2s0.7-0.6,1.1-0.9
				s1-0.3,1.5-0.3h2.2c0.2,0,0.4,0,0.5,0.1s0.3,0.2,0.4,0.3s0.2,0.3,0.3,0.4c0.1,0.2,0.1,0.3,0.1,0.5l0,5.2c0,0.2,0,0.3-0.1,0.4
				c-0.1,0.1-0.1,0.2-0.2,0.3s-0.2,0.2-0.3,0.2s-0.3,0.1-0.4,0.1h-6.7c-0.7,0-1.3-0.1-1.7-0.3c-0.5-0.2-0.8-0.5-1.1-0.8
				s-0.5-0.7-0.6-1.1c-0.1-0.4-0.2-0.9-0.2-1.3c0-0.2,0-0.5,0.1-0.7c0-0.2,0.1-0.5,0.2-0.7S34,13.3,34,13c0.1-0.2,0.2-0.4,0.3-0.6
				l1.9,1c-0.1,0.2-0.2,0.5-0.3,0.8s-0.1,0.6-0.1,1c0,0.2,0,0.3,0.1,0.5s0.1,0.3,0.2,0.4s0.2,0.2,0.4,0.3c0.2,0.1,0.4,0.1,0.7,0.1
				c0,0,0,0,0.1,0c0,0,0,0,0.1,0H38.2z M39.2,9c0-0.2,0-0.3,0.1-0.5s0.1-0.3,0.2-0.4s0.2-0.2,0.4-0.2s0.3-0.1,0.4-0.1
				c0.2,0,0.3,0,0.5,0.1s0.3,0.1,0.4,0.2s0.2,0.2,0.3,0.4s0.1,0.3,0.1,0.5c0,0.2,0,0.3-0.1,0.4s-0.1,0.3-0.3,0.4s-0.2,0.2-0.4,0.3
				c-0.1,0.1-0.3,0.1-0.5,0.1c-0.2,0-0.3,0-0.4-0.1c-0.1-0.1-0.3-0.1-0.4-0.3s-0.2-0.2-0.2-0.4S39.2,9.2,39.2,9z M40.2,15.7
				c0.1,0.3,0.2,0.5,0.4,0.6s0.5,0.3,0.8,0.3h1.4v-3.3h-1.4c-0.2,0-0.4,0-0.6,0.1c-0.2,0.1-0.3,0.2-0.4,0.4s-0.2,0.3-0.3,0.5
				s-0.1,0.4-0.1,0.6C40.1,15.2,40.1,15.4,40.2,15.7z M41.8,9c0-0.2,0-0.3,0.1-0.5s0.1-0.3,0.2-0.4s0.2-0.2,0.4-0.2s0.3-0.1,0.4-0.1
				c0.2,0,0.3,0,0.5,0.1s0.3,0.1,0.4,0.2s0.2,0.2,0.3,0.4s0.1,0.3,0.1,0.5c0,0.2,0,0.3-0.1,0.4s-0.1,0.3-0.3,0.4s-0.2,0.2-0.4,0.3
				c-0.1,0.1-0.3,0.1-0.5,0.1c-0.2,0-0.3,0-0.4-0.1c-0.1-0.1-0.3-0.1-0.4-0.3s-0.2-0.2-0.2-0.4S41.8,9.2,41.8,9z"/>
			<path d="M50.7,16.6c-0.1-0.3-0.2-0.5-0.2-0.8c0-0.3-0.1-0.6-0.1-0.8c0-0.5,0.1-1,0.2-1.4s0.4-0.9,0.7-1.2s0.7-0.6,1.1-0.9
				s1-0.3,1.5-0.3h2.2c0.2,0,0.4,0,0.5,0.1s0.3,0.2,0.4,0.3s0.2,0.3,0.3,0.4c0.1,0.2,0.1,0.3,0.1,0.5l0,5.2c0,0.2,0,0.3-0.1,0.4
				c-0.1,0.1-0.1,0.2-0.2,0.3s-0.2,0.2-0.3,0.2s-0.3,0.1-0.4,0.1h-6.7c-0.7,0-1.3-0.1-1.7-0.3c-0.5-0.2-0.8-0.5-1.1-0.8
				s-0.5-0.7-0.6-1.1c-0.1-0.4-0.2-0.9-0.2-1.3c0-0.2,0-0.5,0.1-0.7c0-0.2,0.1-0.5,0.2-0.7s0.1-0.5,0.2-0.7c0.1-0.2,0.2-0.4,0.3-0.6
				l1.9,1c-0.1,0.2-0.2,0.5-0.3,0.8s-0.1,0.6-0.1,1c0,0.2,0,0.3,0.1,0.5s0.1,0.3,0.2,0.4s0.2,0.2,0.4,0.3c0.2,0.1,0.4,0.1,0.7,0.1
				c0,0,0,0,0.1,0c0,0,0,0,0.1,0H50.7z M52.7,15.7c0.1,0.3,0.2,0.5,0.4,0.6s0.5,0.3,0.8,0.3h1.4v-3.3h-1.4c-0.2,0-0.4,0-0.6,0.1
				c-0.2,0.1-0.3,0.2-0.4,0.4s-0.2,0.3-0.3,0.5s-0.1,0.4-0.1,0.6C52.5,15.2,52.6,15.4,52.7,15.7z M52.9,9c0-0.2,0-0.3,0.1-0.5
				s0.1-0.3,0.2-0.4s0.2-0.2,0.4-0.2s0.3-0.1,0.4-0.1c0.2,0,0.3,0,0.5,0.1s0.3,0.1,0.4,0.2s0.2,0.2,0.3,0.4s0.1,0.3,0.1,0.5
				c0,0.2,0,0.3-0.1,0.4S55,9.7,54.9,9.8s-0.2,0.2-0.4,0.2s-0.3,0.1-0.5,0.1c-0.2,0-0.3,0-0.4-0.1s-0.3-0.1-0.4-0.2S53,9.6,53,9.4
				S52.9,9.2,52.9,9z"/>
			<path d="M62,20.6v-0.8h8.7v0.8H62z"/>
			<path d="M77.8,18.7h-2.2V8.1h2.2V18.7z"/>
			<path d="M81.8,14.7V18c0,0.2,0,0.5,0.1,0.6c0.1,0.2,0.2,0.3,0.4,0.4s0.3,0.2,0.5,0.3s0.4,0.1,0.6,0.1c0.2,0,0.4,0,0.6-0.1
				s0.4-0.1,0.5-0.3s0.3-0.3,0.4-0.4C85,18.5,85,18.3,85,18V8.1h2.2V18c0,0.6-0.1,1.1-0.3,1.6c-0.2,0.4-0.5,0.8-0.9,1.1
				s-0.8,0.5-1.2,0.7s-0.9,0.2-1.4,0.2c-0.5,0-0.9-0.1-1.4-0.2s-0.9-0.4-1.2-0.7s-0.6-0.7-0.9-1.1c-0.2-0.4-0.3-1-0.3-1.6v-3.3H81.8
				z"/>
			<path d="M98.5,11.4v6.3c0,0.2,0,0.3-0.1,0.4c-0.1,0.1-0.1,0.2-0.2,0.3s-0.2,0.2-0.3,0.2s-0.3,0.1-0.4,0.1h-5.3
				c-0.7,0-1.3-0.1-1.7-0.3s-0.8-0.5-1.1-0.8s-0.5-0.7-0.6-1.1s-0.2-0.8-0.2-1.3c0-0.2,0-0.5,0.1-0.7c0-0.2,0.1-0.5,0.2-0.7
				s0.1-0.5,0.2-0.7c0.1-0.2,0.2-0.4,0.3-0.6l1.9,1c-0.1,0.2-0.2,0.5-0.3,0.8s-0.1,0.6-0.1,1c0,0.2,0,0.4,0.1,0.5
				c0,0.2,0.1,0.3,0.2,0.4c0.1,0.1,0.3,0.2,0.4,0.3s0.4,0.1,0.7,0.1c0.7,0,1.5,0,2.1,0s1.4,0,2.1,0v-5.2H98.5z M90.6,10.3
				c0-0.2,0-0.3,0.1-0.5s0.1-0.3,0.2-0.4s0.2-0.2,0.4-0.2s0.3-0.1,0.4-0.1c0.2,0,0.3,0,0.5,0.1s0.3,0.1,0.4,0.2s0.2,0.2,0.3,0.4
				s0.1,0.3,0.1,0.5c0,0.2,0,0.3-0.1,0.4s-0.1,0.3-0.3,0.4s-0.2,0.2-0.4,0.3c-0.1,0.1-0.3,0.1-0.5,0.1c-0.2,0-0.3,0-0.4-0.1
				c-0.1-0.1-0.3-0.1-0.4-0.3s-0.2-0.2-0.2-0.4S90.6,10.4,90.6,10.3z M93.2,10.3c0-0.2,0-0.3,0.1-0.5s0.1-0.3,0.2-0.4
				s0.2-0.2,0.4-0.2s0.3-0.1,0.4-0.1c0.2,0,0.3,0,0.5,0.1s0.3,0.1,0.4,0.2s0.2,0.2,0.3,0.4s0.1,0.3,0.1,0.5c0,0.2,0,0.3-0.1,0.4
				s-0.1,0.3-0.3,0.4s-0.2,0.2-0.4,0.3c-0.1,0.1-0.3,0.1-0.5,0.1c-0.2,0-0.3,0-0.4-0.1c-0.1-0.1-0.3-0.1-0.4-0.3s-0.2-0.2-0.2-0.4
				S93.2,10.4,93.2,10.3z"/>
			<path d="M104.2,12.3c0,0.5,0,1.1,0,1.7c0,0.6,0,1.1,0,1.7c0,0.5,0,1,0,1.5s-0.1,1-0.2,1.5c-0.1,0.6-0.3,1.2-0.5,1.7s-0.6,1-1,1.4
				c-0.4,0.4-0.9,0.7-1.5,0.9S99.8,23,98.9,23v-2.2c0.5,0,0.9-0.1,1.3-0.2c0.3-0.1,0.6-0.3,0.9-0.6s0.4-0.5,0.6-0.9s0.2-0.7,0.3-1.1
				s0.1-0.8,0.1-1.2s0-0.8,0-1.2c0-0.6,0-1.1,0-1.7s0-1.1,0-1.6H104.2z M101.9,9.8c0-0.2,0-0.3,0.1-0.5s0.1-0.3,0.2-0.4
				s0.2-0.2,0.4-0.2s0.3-0.1,0.4-0.1c0.2,0,0.3,0,0.5,0.1s0.3,0.1,0.4,0.2s0.2,0.2,0.3,0.4s0.1,0.3,0.1,0.5c0,0.2,0,0.3-0.1,0.4
				s-0.1,0.3-0.3,0.4s-0.2,0.2-0.4,0.2c-0.1,0.1-0.3,0.1-0.5,0.1c-0.2,0-0.3,0-0.4-0.1c-0.1-0.1-0.3-0.1-0.4-0.2s-0.2-0.2-0.2-0.4
				S101.9,10,101.9,9.8z"/>
			<path d="M108,18.7h-2.2V8.1h2.2V18.7z"/>
			<path d="M112.2,14.6c0-0.4,0.1-0.8,0.3-1.3s0.4-0.8,0.8-1.2c0.3-0.3,0.7-0.6,1.1-0.8s0.9-0.3,1.4-0.3c0.4,0,0.9,0,1.3,0
				s0.9,0,1.3,0c0.1,0,0.3,0,0.4,0.1s0.2,0.1,0.3,0.2c0.1,0.1,0.2,0.2,0.2,0.3c0.1,0.1,0.1,0.3,0.1,0.4v5.4c0,0.2,0,0.3-0.1,0.4
				c-0.1,0.1-0.1,0.2-0.2,0.3s-0.2,0.2-0.3,0.2s-0.3,0.1-0.4,0.1h-5.2c-0.2,0-0.4,0-0.6,0c-0.2,0-0.3,0.1-0.4,0.1s-0.2,0.2-0.3,0.3
				s-0.1,0.3-0.1,0.6v3.1h-2.2v-3.1c0-0.5,0.1-0.9,0.2-1.3s0.3-0.7,0.5-0.9c0.2-0.3,0.5-0.5,0.8-0.6c0.3-0.2,0.7-0.3,1-0.3V14.6z
				 M114.3,16.6h2.9v-3.3c-0.4,0-0.7,0-0.9,0s-0.4,0-0.4,0c-0.1,0-0.1,0-0.2,0h0c-0.2,0-0.3,0-0.5,0.1s-0.3,0.2-0.4,0.3
				s-0.2,0.3-0.3,0.5s-0.1,0.4-0.1,0.5V16.6z"/>
			<path d="M123.8,20.6v-0.8h8.7v0.8H123.8z"/>
			<path d="M139.3,14.6c0-0.4,0.1-0.8,0.3-1.3s0.4-0.8,0.8-1.2c0.3-0.3,0.7-0.6,1.1-0.8s0.9-0.3,1.4-0.3c0.4,0,0.9,0,1.3,0
				s0.9,0,1.3,0c0.1,0,0.3,0,0.4,0.1s0.2,0.1,0.3,0.2c0.1,0.1,0.2,0.2,0.2,0.3c0.1,0.1,0.1,0.3,0.1,0.4v5.4c0,0.2,0,0.3-0.1,0.4
				c-0.1,0.1-0.1,0.2-0.2,0.3s-0.2,0.2-0.3,0.2s-0.3,0.1-0.4,0.1h-5.2c-0.2,0-0.4,0-0.6,0c-0.2,0-0.3,0.1-0.4,0.1s-0.2,0.2-0.3,0.3
				s-0.1,0.3-0.1,0.6v3.1h-2.2v-3.1c0-0.5,0.1-0.9,0.2-1.3s0.3-0.7,0.5-0.9c0.2-0.3,0.5-0.5,0.8-0.6c0.3-0.2,0.7-0.3,1-0.3V14.6z
				 M141.5,16.6h2.9v-3.3c-0.4,0-0.7,0-0.9,0s-0.4,0-0.4,0c-0.1,0-0.1,0-0.2,0h0c-0.2,0-0.3,0-0.5,0.1s-0.3,0.2-0.4,0.3
				s-0.2,0.3-0.3,0.5s-0.1,0.4-0.1,0.5V16.6z"/>
			<path d="M153.5,11.1c0.2,0,0.4,0,0.5,0.1s0.3,0.2,0.4,0.3s0.2,0.3,0.3,0.4s0.1,0.3,0.1,0.5c0,0.1,0,0.3,0,0.6c0,0.2,0,0.5,0,0.8
				c0,0.3,0,0.6,0,0.9s0,0.6,0,0.9s0,0.5,0,0.7s0,0.3,0,0.4c0,1.2-0.2,2.3-0.4,3.1c-0.3,0.8-0.6,1.5-1.1,1.9s-1,0.8-1.6,1
				s-1.3,0.3-2.1,0.3v-2.2c0.9,0,1.5-0.2,2-0.5s0.8-0.8,0.9-1.5c-0.3,0-0.6,0.1-1,0.1c-0.4,0-0.7,0-1.1,0c-0.4,0-0.7-0.1-1.1-0.3
				s-0.7-0.4-0.9-0.7s-0.5-0.7-0.6-1.2s-0.2-1.1-0.2-1.9c0-0.5,0.1-1,0.3-1.4s0.4-0.8,0.8-1.2s0.7-0.6,1.1-0.8s0.9-0.3,1.4-0.3
				H153.5z M152.7,13.3c-0.2,0-0.5,0-0.7,0c-0.2,0-0.5,0-0.7,0c-0.2,0-0.4,0-0.5,0.1c-0.2,0.1-0.3,0.2-0.5,0.3
				c-0.1,0.1-0.2,0.3-0.3,0.5s-0.1,0.4-0.1,0.6c0,0.4,0,0.8,0,1c0,0.3,0.1,0.5,0.2,0.7c0.1,0.2,0.3,0.3,0.5,0.3s0.4,0.1,0.7,0.1
				c0.3,0,0.6,0,0.8-0.1s0.3-0.1,0.4-0.2c0.1-0.1,0.2-0.2,0.2-0.4s0.1-0.4,0.1-0.7L152.7,13.3z"/>
			<path d="M159,18.7h-2.2V8.1h2.2V18.7z"/>
			<path d="M165,16.6h2.5c0-0.5-0.1-1-0.3-1.4s-0.3-0.7-0.6-0.9s-0.5-0.4-0.8-0.6s-0.6-0.2-0.9-0.3c-0.3-0.1-0.6-0.1-0.9-0.1
				s-0.6,0-0.9,0c-0.1,0-0.3,0-0.4,0s-0.3,0-0.5,0l0.2-2.2c0.1,0,0.2,0,0.3,0s0.2,0,0.3,0s0.2,0,0.3,0s0.2,0,0.3,0
				c0.4,0,0.8,0.1,1.3,0.1c0.4,0.1,0.9,0.1,1.3,0.3c0.4,0.1,0.9,0.3,1.3,0.5s0.8,0.5,1.1,0.9s0.6,0.9,0.8,1.5s0.3,1.3,0.4,2.1h0.8
				v2.2H165c-0.4,0-0.7,0.1-0.9,0.2s-0.5,0.2-0.7,0.4c-0.2,0.2-0.3,0.3-0.4,0.5s-0.1,0.4-0.1,0.6c0,0.3,0.1,0.6,0.3,0.8
				s0.4,0.5,0.8,0.8l-1.2,1.8c-0.7-0.5-1.2-1-1.5-1.6c-0.3-0.6-0.5-1.2-0.5-1.8c0-0.5,0.1-0.9,0.3-1.4s0.5-0.8,0.8-1.2
				c0.4-0.3,0.8-0.6,1.3-0.9C163.6,16.7,164.2,16.6,165,16.6L165,16.6z M164.8,21.1c0-0.2,0-0.3,0.1-0.5s0.1-0.3,0.2-0.4
				s0.2-0.2,0.4-0.2s0.3-0.1,0.4-0.1c0.2,0,0.3,0,0.5,0.1s0.3,0.1,0.4,0.2s0.2,0.2,0.3,0.4s0.1,0.3,0.1,0.5c0,0.2,0,0.3-0.1,0.4
				s-0.1,0.3-0.3,0.4s-0.2,0.2-0.4,0.3c-0.1,0.1-0.3,0.1-0.5,0.1c-0.2,0-0.3,0-0.4-0.1c-0.1-0.1-0.3-0.1-0.4-0.3s-0.2-0.2-0.2-0.4
				S164.8,21.2,164.8,21.1z"/>
			<path d="M177.6,11.1c0.2,0,0.4,0,0.5,0.1c0.2,0.1,0.3,0.2,0.4,0.3c0.1,0.1,0.2,0.3,0.3,0.4s0.1,0.3,0.1,0.5l0,5
				c0,0.3-0.1,0.5-0.2,0.7s-0.4,0.3-0.6,0.4c-0.4,0.1-0.9,0.2-1.3,0.3s-0.9,0.1-1.4,0.1c-0.2,0-0.4,0-0.7,0s-0.5,0-0.8,0
				s-0.5-0.1-0.8-0.1s-0.5-0.1-0.7-0.2s-0.4-0.2-0.5-0.4s-0.2-0.4-0.3-0.6v-2.7c0-0.5,0.1-1,0.3-1.4s0.4-0.8,0.8-1.2
				s0.7-0.6,1.1-0.8s0.9-0.3,1.4-0.3H177.6z M175.3,16.7c0.5,0,1,0,1.4-0.1v-3.3c-0.2,0-0.5,0-0.7,0c-0.2,0-0.5,0-0.7,0
				c-0.2,0-0.4,0-0.6,0.1c-0.2,0.1-0.3,0.2-0.5,0.3c-0.1,0.1-0.2,0.3-0.3,0.5s-0.1,0.4-0.1,0.6l0,1.8c0.3,0.1,0.5,0.1,0.7,0.1
				C174.8,16.7,175,16.7,175.3,16.7L175.3,16.7z"/>
			<path d="M186.1,11.1c0.2,0,0.4,0,0.5,0.1c0.2,0.1,0.3,0.2,0.4,0.3c0.1,0.1,0.2,0.3,0.3,0.4s0.1,0.3,0.1,0.5l0,5
				c0,0.3-0.1,0.5-0.2,0.7s-0.4,0.3-0.6,0.4c-0.4,0.1-0.9,0.2-1.3,0.3s-0.9,0.1-1.4,0.1c-0.2,0-0.4,0-0.7,0s-0.5,0-0.8,0
				s-0.5-0.1-0.8-0.1s-0.5-0.1-0.7-0.2s-0.4-0.2-0.5-0.4s-0.2-0.4-0.3-0.6v-2.7c0-0.5,0.1-1,0.3-1.4s0.4-0.8,0.8-1.2
				s0.7-0.6,1.1-0.8s0.9-0.3,1.4-0.3H186.1z M181.5,9c0-0.2,0-0.3,0.1-0.5s0.1-0.3,0.2-0.4s0.2-0.2,0.4-0.2s0.3-0.1,0.4-0.1
				c0.2,0,0.3,0,0.5,0.1s0.3,0.1,0.4,0.2s0.2,0.2,0.3,0.4s0.1,0.3,0.1,0.5c0,0.2,0,0.3-0.1,0.4s-0.1,0.3-0.3,0.4s-0.2,0.2-0.4,0.3
				c-0.1,0.1-0.3,0.1-0.5,0.1c-0.2,0-0.3,0-0.4-0.1c-0.1-0.1-0.3-0.1-0.4-0.3s-0.2-0.2-0.2-0.4S181.5,9.2,181.5,9z M183.8,16.7
				c0.5,0,1,0,1.4-0.1v-3.3c-0.2,0-0.5,0-0.7,0c-0.2,0-0.5,0-0.7,0c-0.2,0-0.4,0-0.6,0.1c-0.2,0.1-0.3,0.2-0.5,0.3
				c-0.1,0.1-0.2,0.3-0.3,0.5s-0.1,0.4-0.1,0.6l0,1.8c0.3,0.1,0.5,0.1,0.7,0.1C183.3,16.7,183.5,16.7,183.8,16.7L183.8,16.7z
				 M184.2,9c0-0.2,0-0.3,0.1-0.5s0.1-0.3,0.2-0.4s0.2-0.2,0.4-0.2s0.3-0.1,0.4-0.1c0.2,0,0.3,0,0.5,0.1s0.3,0.1,0.4,0.2
				s0.2,0.2,0.3,0.4s0.1,0.3,0.1,0.5c0,0.2,0,0.3-0.1,0.4s-0.1,0.3-0.3,0.4s-0.2,0.2-0.4,0.3c-0.1,0.1-0.3,0.1-0.5,0.1
				c-0.2,0-0.3,0-0.4-0.1c-0.1-0.1-0.3-0.1-0.4-0.3s-0.2-0.2-0.2-0.4S184.2,9.2,184.2,9z"/>
		</g>
	</g>
</g>
</svg>
